HIERARCHY
ROOT Hips
{
	OFFSET 0.000000 71.427986 0.000000
	CHANNELS 6 Xposition Yposition Zposition Xrotation Yrotation Zrotation
	JOINT Pelvis
	{
		OFFSET 0.000000 0.000000 0.000000
		CHANNELS 3 Xrotation Yrotation Zrotation
		JOINT LeftUpLeg
		{
			OFFSET 6.797100 -2.508499 -1.318700
			CHANNELS 3 Xrotation Yrotation Zrotation
			JOINT LeftLeg
			{
				OFFSET 0.069008 -29.241863 0.690200
				CHANNELS 3 Xrotation Yrotation Zrotation
				JOINT LeftFoot
				{
					OFFSET -0.069008 -29.568123 -0.266800
					CHANNELS 3 Xrotation Yrotation Zrotation
					JOINT LeftToeBase
					{
						OFFSET 3.145500 -8.631000 16.059900
						CHANNELS 3 Xrotation Yrotation Zrotation
						End Site
						{
							OFFSET 0.000000 18.501587 0.000000
						}
					}
				}
			}
			JOINT Left_ShortSleeve
			{
				OFFSET 0.265923 -10.480953 1.153800
				CHANNELS 3 Xrotation Yrotation Zrotation
				End Site
				{
					OFFSET 1.725763 19.823879 0.000000
				}
			}
		}
		JOINT RightUpLeg
		{
			OFFSET -6.797100 -2.508499 -1.318700
			CHANNELS 3 Xrotation Yrotation Zrotation
			JOINT RightLeg
			{
				OFFSET -0.082453 -29.241932 0.688000
				CHANNELS 3 Xrotation Yrotation Zrotation
				JOINT RightFoot
				{
					OFFSET 0.082453 -29.568058 -0.264600
					CHANNELS 3 Xrotation Yrotation Zrotation
					JOINT RightToeBase
					{
						OFFSET -3.115300 -8.682800 16.113400
						CHANNELS 3 Xrotation Yrotation Zrotation
						End Site
						{
							OFFSET 0.000000 18.567114 0.000000
						}
					}
				}
			}
			JOINT Right_ShortSleeve
			{
				OFFSET -0.265923 -10.480953 1.153800
				CHANNELS 3 Xrotation Yrotation Zrotation
				End Site
				{
					OFFSET -1.725766 19.823910 0.000000
				}
			}
		}
	}
	JOINT Spine
	{
		OFFSET 0.000000 13.368103 0.470500
		CHANNELS 3 Xrotation Yrotation Zrotation
		JOINT Spine1
		{
			OFFSET 0.147000 13.837402 0.538800
			CHANNELS 3 Xrotation Yrotation Zrotation
			JOINT Spine2
			{
				OFFSET 0.168000 16.242897 -1.435500
				CHANNELS 3 Xrotation Yrotation Zrotation
				JOINT Neck
				{
					OFFSET 0.217200 18.631500 -1.679100
					CHANNELS 3 Xrotation Yrotation Zrotation
					JOINT Head
					{
						OFFSET 0.000000 6.599396 1.385900
						CHANNELS 3 Xrotation Yrotation Zrotation
						JOINT Hat
						{
							OFFSET -0.532200 27.220596 -10.096100
							CHANNELS 3 Xrotation Yrotation Zrotation
							End Site
							{
								OFFSET 0.000000 22.029861 0.000000
							}
						}
						JOINT HairD
						{
							OFFSET -10.777400 17.437393 -1.325900
							CHANNELS 3 Xrotation Yrotation Zrotation
							JOINT HairD1
							{
								OFFSET -3.290299 -11.051193 1.062200
								CHANNELS 3 Xrotation Yrotation Zrotation
								End Site
								{
									OFFSET 0.000000 11.579437 0.000000
								}
							}
						}
						JOINT HairB
						{
							OFFSET -10.777400 17.437393 1.467900
							CHANNELS 3 Xrotation Yrotation Zrotation
							JOINT HairB1
							{
								OFFSET -1.561200 -12.956299 3.590200
								CHANNELS 3 Xrotation Yrotation Zrotation
								End Site
								{
									OFFSET 0.000000 13.534866 0.000000
								}
							}
						}
						JOINT HairA
						{
							OFFSET 9.713100 17.437393 1.467900
							CHANNELS 3 Xrotation Yrotation Zrotation
							JOINT HairA1
							{
								OFFSET 1.561200 -12.956299 3.590200
								CHANNELS 3 Xrotation Yrotation Zrotation
								End Site
								{
									OFFSET 0.000000 13.534866 0.000000
								}
							}
						}
						JOINT HairC
						{
							OFFSET 9.713100 17.437393 -1.325900
							CHANNELS 3 Xrotation Yrotation Zrotation
							JOINT HairC1
							{
								OFFSET 3.290300 -11.051193 1.062200
								CHANNELS 3 Xrotation Yrotation Zrotation
								End Site
								{
									OFFSET 0.000000 11.579437 0.000000
								}
							}
						}
					}
				}
				JOINT LeftShoulder
				{
					OFFSET 5.101800 15.108002 -2.763700
					CHANNELS 3 Xrotation Yrotation Zrotation
					JOINT LeftArm
					{
						OFFSET 9.825497 2.506317 -1.597400
						CHANNELS 3 Xrotation Yrotation Zrotation
						JOINT LeftForeArm
						{
							OFFSET 21.966244 0.000000 0.000000
							CHANNELS 3 Xrotation Yrotation Zrotation
							JOINT LeftHand
							{
								OFFSET 33.879036 0.000000 0.000000
								CHANNELS 3 Xrotation Yrotation Zrotation
								JOINT LeftHandThumb1
								{
									OFFSET 6.715286 -2.359680 3.363841
									CHANNELS 3 Xrotation Yrotation Zrotation
									JOINT LeftHandThumb2
									{
										OFFSET 2.507072 -1.447464 1.447461
										CHANNELS 3 Xrotation Yrotation Zrotation
										JOINT LeftHandThumb3
										{
											OFFSET 2.898338 -1.673355 1.673357
											CHANNELS 3 Xrotation Yrotation Zrotation
											End Site
											{
												OFFSET -0.295959 3.727692 -0.131651
											}
										}
									}
								}
								JOINT LeftHandIndex1
								{
									OFFSET 14.190811 -0.254547 3.840278
									CHANNELS 3 Xrotation Yrotation Zrotation
									JOINT LeftHandIndex2
									{
										OFFSET 3.551727 0.000000 -0.000000
										CHANNELS 3 Xrotation Yrotation Zrotation
										JOINT LeftHandIndex3
										{
											OFFSET 2.894196 0.000000 0.000000
											CHANNELS 3 Xrotation Yrotation Zrotation
											End Site
											{
												OFFSET -1.000603 2.690872 0.366626
											}
										}
									}
								}
								JOINT LeftHandMiddle1
								{
									OFFSET 13.776489 0.000000 0.000000
									CHANNELS 3 Xrotation Yrotation Zrotation
									JOINT LeftHandMiddle2
									{
										OFFSET 3.438232 0.000000 0.000000
										CHANNELS 3 Xrotation Yrotation Zrotation
										JOINT LeftHandMiddle3
										{
											OFFSET 3.691551 0.000000 0.000000
											CHANNELS 3 Xrotation Yrotation Zrotation
											End Site
											{
												OFFSET -1.082298 3.499527 0.457670
											}
										}
									}
								}
								JOINT LeftHandRing1
								{
									OFFSET 13.966164 -0.268127 -3.067488
									CHANNELS 3 Xrotation Yrotation Zrotation
									JOINT LeftHandRing2
									{
										OFFSET 3.162567 0.000000 0.000000
										CHANNELS 3 Xrotation Yrotation Zrotation
										JOINT LeftHandRing3
										{
											OFFSET 3.324348 0.000000 0.000000
											CHANNELS 3 Xrotation Yrotation Zrotation
											End Site
											{
												OFFSET -0.861900 3.184998 0.405154
											}
										}
									}
								}
								JOINT LeftHandPinky1
								{
									OFFSET 13.131393 -0.168503 -5.746925
									CHANNELS 3 Xrotation Yrotation Zrotation
									JOINT LeftHandPinky2
									{
										OFFSET 2.849182 0.000000 0.000000
										CHANNELS 3 Xrotation Yrotation Zrotation
										JOINT LeftHandPinky3
										{
											OFFSET 2.805038 0.000000 0.000000
											CHANNELS 3 Xrotation Yrotation Zrotation
											End Site
											{
												OFFSET -0.882500 2.642609 0.325652
											}
										}
									}
								}
							}
							JOINT Left_Sleeve
							{
								OFFSET 6.592125 -0.646545 0.805568
								CHANNELS 3 Xrotation Yrotation Zrotation
								End Site
								{
									OFFSET -0.000179 20.275787 -0.000000
								}
							}
						}
					}
				}
				JOINT RightShoulder
				{
					OFFSET -5.731700 15.108002 -2.763700
					CHANNELS 3 Xrotation Yrotation Zrotation
					JOINT RightArm
					{
						OFFSET -9.825497 2.506317 -1.597400
						CHANNELS 3 Xrotation Yrotation Zrotation
						JOINT RightForeArm
						{
							OFFSET -21.966242 0.000000 0.000000
							CHANNELS 3 Xrotation Yrotation Zrotation
							JOINT RightHand
							{
								OFFSET -33.879032 0.000000 0.000000
								CHANNELS 3 Xrotation Yrotation Zrotation
								JOINT RightHandThumb1
								{
									OFFSET -6.715286 -2.359680 3.363841
									CHANNELS 3 Xrotation Yrotation Zrotation
									JOINT RightHandThumb2
									{
										OFFSET -2.507072 -1.447464 1.447461
										CHANNELS 3 Xrotation Yrotation Zrotation
										JOINT RightHandThumb3
										{
											OFFSET -2.898338 -1.673355 1.673357
											CHANNELS 3 Xrotation Yrotation Zrotation
											End Site
											{
												OFFSET 0.295959 3.727692 -0.131651
											}
										}
									}
								}
								JOINT RightHandIndex1
								{
									OFFSET -14.190811 -0.254547 3.840278
									CHANNELS 3 Xrotation Yrotation Zrotation
									JOINT RightHandIndex2
									{
										OFFSET -3.551727 0.000000 -0.000000
										CHANNELS 3 Xrotation Yrotation Zrotation
										JOINT RightHandIndex3
										{
											OFFSET -2.894196 0.000000 0.000000
											CHANNELS 3 Xrotation Yrotation Zrotation
											End Site
											{
												OFFSET 1.000603 2.690872 0.366626
											}
										}
									}
								}
								JOINT RightHandMiddle1
								{
									OFFSET -13.776489 0.000000 0.000000
									CHANNELS 3 Xrotation Yrotation Zrotation
									JOINT RightHandMiddle2
									{
										OFFSET -3.438232 0.000000 0.000000
										CHANNELS 3 Xrotation Yrotation Zrotation
										JOINT RightHandMiddle3
										{
											OFFSET -3.691551 0.000000 0.000000
											CHANNELS 3 Xrotation Yrotation Zrotation
											End Site
											{
												OFFSET 1.082298 3.499527 0.457670
											}
										}
									}
								}
								JOINT RightHandRing1
								{
									OFFSET -13.966164 -0.268127 -3.067488
									CHANNELS 3 Xrotation Yrotation Zrotation
									JOINT RightHandRing2
									{
										OFFSET -3.162567 0.000000 0.000000
										CHANNELS 3 Xrotation Yrotation Zrotation
										JOINT RightHandRing3
										{
											OFFSET -3.324348 0.000000 0.000000
											CHANNELS 3 Xrotation Yrotation Zrotation
											End Site
											{
												OFFSET 0.861900 3.184998 0.405154
											}
										}
									}
								}
								JOINT RightHandPinky1
								{
									OFFSET -13.131393 -0.168503 -5.746925
									CHANNELS 3 Xrotation Yrotation Zrotation
									JOINT RightHandPinky2
									{
										OFFSET -2.849182 0.000000 0.000000
										CHANNELS 3 Xrotation Yrotation Zrotation
										JOINT RightHandPinky3
										{
											OFFSET -2.805038 0.000000 0.000000
											CHANNELS 3 Xrotation Yrotation Zrotation
											End Site
											{
												OFFSET 0.882500 2.642609 0.325652
											}
										}
									}
								}
							}
							JOINT Right_Sleeve
							{
								OFFSET -6.592125 -0.646545 0.805568
								CHANNELS 3 Xrotation Yrotation Zrotation
								End Site
								{
									OFFSET 0.000179 20.275787 -0.000000
								}
							}
						}
					}
				}
				JOINT Bind_Right_JacketString
				{
					OFFSET -3.534800 11.969597 7.200700
					CHANNELS 3 Xrotation Yrotation Zrotation
					JOINT Bind_Right_JacketString1
					{
						OFFSET -0.319900 -6.102600 2.794100
						CHANNELS 3 Xrotation Yrotation Zrotation
						End Site
						{
							OFFSET 0.000000 6.719452 0.000000
						}
					}
				}
				JOINT Bind_Left_JacketString
				{
					OFFSET 2.904800 11.969597 7.200700
					CHANNELS 3 Xrotation Yrotation Zrotation
					JOINT Bind_Left_JacketString1
					{
						OFFSET 0.364800 -5.904503 3.186800
						CHANNELS 3 Xrotation Yrotation Zrotation
						End Site
						{
							OFFSET 0.000000 6.719513 0.000000
						}
					}
				}
				JOINT HairE
				{
					OFFSET 5.915200 17.612701 -11.592200
					CHANNELS 3 Xrotation Yrotation Zrotation
					JOINT HairE1
					{
						OFFSET 0.289200 -7.171898 -1.284500
						CHANNELS 3 Xrotation Yrotation Zrotation
						End Site
						{
							OFFSET 0.000000 7.291756 0.000000
						}
					}
				}
				JOINT HairF
				{
					OFFSET -0.864800 17.612701 -11.592200
					CHANNELS 3 Xrotation Yrotation Zrotation
					JOINT HairF1
					{
						OFFSET 0.000000 -14.087097 -2.127501
						CHANNELS 3 Xrotation Yrotation Zrotation
						End Site
						{
							OFFSET 0.000000 14.246841 0.000000
						}
					}
				}
				JOINT HairG
				{
					OFFSET -8.087700 17.612701 -11.592200
					CHANNELS 3 Xrotation Yrotation Zrotation
					JOINT HairG1
					{
						OFFSET -0.293600 -6.081398 -0.910100
						CHANNELS 3 Xrotation Yrotation Zrotation
						End Site
						{
							OFFSET 0.000000 6.156120 0.000000
						}
					}
				}
			}
		}
	}
	JOINT Pouch
	{
		OFFSET 0.000000 4.394501 10.847300
		CHANNELS 3 Xrotation Yrotation Zrotation
		End Site
		{
			OFFSET 0.000000 21.880577 0.000000
		}
	}
	JOINT Bag
	{
		OFFSET -13.229000 4.813004 -0.593300
		CHANNELS 3 Xrotation Yrotation Zrotation
		End Site
		{
			OFFSET 0.000000 21.880577 0.000000
		}
	}
	JOINT OccupyGuyFacialAnim_Joint
	{
		OFFSET 1.000000 -70.206398 -1.655000
		CHANNELS 3 Xrotation Yrotation Zrotation
		End Site
		{
			OFFSET 0.000000 21.880577 0.000000
		}
	}
}
MOTION
Frames: 5
Frame Time: 0.033333
0.017098 67.308258 0.052437 5.870594 -17.823336 2.198825 -0.000000 0.000001 -0.000000 -37.771397 10.820627 10.739940 67.659977 7.592501 -8.368537 -9.296383 4.278801 -0.140899 0.000000 -0.000000 0.000000 0.000001 -0.000001 -0.000000 -27.783396 18.070783 7.017705 44.103566 -6.713188 1.828403 -20.530143 -4.094922 0.895365 0.000000 -0.000001 0.000000 -0.000000 0.000000 -0.000000 3.482325 -1.569963 1.473018 4.828642 -2.419314 0.835444 4.774598 -2.549310 0.869714 14.102276 11.901518 -15.971868 -23.527837 7.571075 4.976236 0.000000 -0.000000 0.000000 0.000000 -0.000000 0.000000 0.000000 -0.000000 0.000000 0.000000 -0.000000 -0.000000 0.000000 -0.000000 -0.000000 0.000000 -0.000000 -0.000000 0.000000 -0.000000 -0.000000 0.000000 -0.000000 0.000000 0.000000 -0.000000 0.000000 -0.060459 -8.759357 -0.069454 -55.254441 0.325767 -41.448661 11.551533 -65.828352 12.975512 -50.190382 12.359557 4.599329 17.564605 -5.711572 -12.922050 10.850521 26.127669 8.644774 0.000000 0.000001 -0.000000 13.973723 1.210717 -55.006181 0.373471 1.172576 -65.442139 0.000002 -0.000000 -0.000000 7.504720 1.174532 -63.778469 1.801599 1.473398 -64.567363 0.000002 0.000000 0.000002 8.579504 2.160783 -75.138631 -0.201972 0.989783 -57.855712 0.000001 0.000000 -0.000004 10.080581 13.622864 -84.752839 0.873243 0.050879 -64.595968 -0.000000 -0.000001 0.000003 0.000003 0.000000 -0.000000 4.853443 7.760742 5.560737 -0.936932 -2.177439 61.844747 11.288199 18.946713 -3.985181 -0.441523 6.619127 5.830416 14.473803 0.390968 -17.264328 -2.224668 -31.130705 7.362015 0.000000 0.000000 -0.000000 2.366250 -3.659731 8.487179 -2.160463 -2.463163 18.673266 -0.000001 -0.000000 -0.000002 -1.974015 -5.709765 13.662463 0.577708 -5.121403 27.009795 -0.000001 -0.000001 0.000001 -3.241846 -8.555400 11.765210 3.964200 -3.959492 33.255651 -0.000000 -0.000000 -0.000001 -6.474825 -11.359820 23.258968 10.731258 -2.562374 34.823955 -0.000001 0.000001 0.000001 -0.000000 0.000000 0.000001 -0.000000 -0.000001 0.000000 0.000000 -0.000001 -0.000000 -0.000000 -0.000001 0.000000 -0.000000 -0.000001 0.000000 -0.000000 -0.000001 0.000000 0.000000 -0.000001 -0.000000 -0.000000 -0.000001 0.000000 -0.000000 -0.000001 0.000000 -0.000000 -0.000001 0.000000 0.000000 -0.000001 -0.000000 -0.000000 0.000001 -0.000000 -0.000000 0.000001 -0.000000 -0.000000 0.000001 -0.000000 
-0.148076 67.745125 3.295178 5.159049 -18.663050 2.348405 -0.000000 -0.000001 -0.000000 -38.506336 9.730798 9.737328 55.540807 7.837056 -8.256718 -6.777839 3.537915 1.487818 0.000002 0.000002 -0.000000 0.000005 0.000000 -0.000000 -22.691055 18.644357 6.009317 42.316874 -6.620906 1.100699 -22.462455 -4.045012 0.892335 0.000000 0.000001 -0.000000 -0.000000 0.000000 -0.000000 4.051721 -1.164628 0.783777 4.727713 -1.764968 0.905244 4.668651 -1.863359 0.915447 12.880553 11.404598 -15.366636 -22.654506 7.038549 4.784760 -0.000000 -0.000000 0.000000 -0.000000 -0.000000 0.000000 -0.000000 -0.000000 0.000000 -0.000000 -0.000000 0.000000 -0.000001 0.000000 -0.000000 -0.000000 -0.000000 0.000000 -0.000001 0.000000 -0.000000 -0.000000 -0.000000 0.000000 -0.000000 -0.000000 0.000000 0.029255 -8.420419 -0.073664 -55.220307 -0.130089 -41.625953 11.951807 -65.662276 13.282313 -50.147126 12.192999 4.202243 17.546995 -5.763579 -12.916929 10.864638 26.165937 8.646566 0.000000 -0.000001 0.000001 14.088402 0.923945 -55.522143 0.382563 1.180502 -66.044794 0.000001 0.000001 0.000003 7.565374 1.064519 -64.219775 1.814275 1.466796 -65.036358 -0.000000 0.000000 -0.000001 8.585066 2.110467 -75.472832 -0.199804 0.996271 -58.135572 -0.000001 0.000000 0.000001 10.189323 13.647941 -84.831516 0.874169 0.051217 -64.640678 0.000000 -0.000001 0.000003 0.000002 -0.000000 -0.000001 5.054099 8.370768 4.902065 -2.736263 1.540876 61.066208 10.577443 19.236196 -3.312387 -0.105393 8.117931 4.637663 14.578578 0.427123 -17.166958 -2.243246 -31.092609 7.359978 0.000000 0.000001 0.000002 2.510868 -4.022270 8.402995 -2.150440 -2.469762 18.908595 -0.000000 0.000000 -0.000001 -1.747618 -6.204674 13.317017 0.568429 -5.120840 26.862712 0.000001 -0.000000 0.000001 -3.557003 -9.268280 11.490402 3.998611 -3.941345 33.080536 0.000001 -0.000001 -0.000004 -7.666963 -12.128414 22.369930 10.722637 -2.557532 34.250031 -0.000000 0.000001 0.000001 0.000000 0.000000 -0.000001 -0.000000 -0.000000 0.000001 -0.000000 -0.000000 0.000000 -0.000000 -0.000000 0.000000 -0.000000 -0.000000 0.000000 -0.000000 -0.000000 0.000001 -0.000000 -0.000000 0.000000 -0.000000 -0.000000 0.000000 -0.000000 -0.000000 0.000000 -0.000000 -0.000000 0.000001 -0.000000 -0.000000 0.000000 -0.000000 -0.000001 -0.000000 -0.000000 -0.000001 -0.000000 -0.000000 -0.000001 -0.000000 
-0.260784 68.046143 6.585110 4.387290 -19.895134 2.068151 -0.000000 -0.000001 0.000000 -38.674242 8.577515 9.971398 43.888958 8.786391 -8.131794 -7.680303 2.757230 1.981680 -0.000000 -0.000001 0.000000 0.000000 -0.000000 -0.000000 -17.265757 19.002368 4.918132 39.857651 -5.925039 0.541399 -24.145231 -3.947957 0.730583 0.000000 -0.000001 0.000000 -0.000000 0.000000 -0.000000 4.686327 -0.736521 0.516039 4.604981 -1.076845 0.909679 4.539710 -1.156626 0.898776 11.625861 10.874540 -14.341420 -21.812484 6.687435 4.334249 0.000001 0.000000 -0.000000 0.000001 0.000000 -0.000000 0.000001 0.000000 -0.000000 0.000001 0.000000 0.000000 -0.000000 0.000000 -0.000000 0.000001 0.000000 0.000000 -0.000000 0.000000 -0.000000 0.000001 0.000000 -0.000000 0.000001 0.000000 -0.000000 0.055458 -8.104283 -0.074599 -54.717947 -0.499036 -41.485135 12.367510 -65.992250 13.665492 -50.201037 12.358704 4.233557 17.546606 -5.764718 -12.916799 10.871702 26.185086 8.647470 0.000002 -0.000000 0.000000 14.013749 0.210249 -55.404138 0.383937 1.178592 -66.144447 0.000002 0.000000 0.000003 7.726868 0.952578 -64.262415 1.819262 1.463602 -65.221524 0.000001 0.000000 -0.000005 8.591773 2.076878 -75.696453 -0.197597 0.998272 -58.411464 -0.000001 0.000000 -0.000003 10.258612 13.663821 -84.882244 0.875110 0.051479 -64.685470 -0.000001 0.000000 0.000001 0.000004 0.000000 -0.000002 5.178494 9.651620 4.258231 -4.810092 4.887983 60.458492 10.150010 18.954180 -2.702293 0.423901 9.509202 1.715432 14.696313 0.468155 -17.057656 -2.256800 -31.062765 7.359796 0.000002 0.000000 0.000003 2.659220 -4.381546 8.271995 -2.139588 -2.479283 19.159688 -0.000001 0.000001 0.000000 -1.509714 -6.706541 12.853686 0.550292 -5.121040 26.660518 0.000001 -0.000000 0.000001 -3.909316 -10.008070 11.121088 4.036090 -3.923703 32.822764 -0.000000 0.000000 -0.000004 -9.000390 -12.881002 21.321825 10.712766 -2.556927 33.573184 -0.000001 0.000001 0.000001 -0.000001 0.000000 0.000000 0.000000 0.000001 -0.000001 0.000002 -0.000001 -0.000000 0.000000 0.000001 -0.000001 0.000000 0.000001 -0.000001 0.000000 0.000001 -0.000001 0.000002 -0.000001 -0.000000 0.000000 0.000001 -0.000001 0.000000 0.000001 -0.000001 0.000000 0.000001 -0.000001 0.000002 -0.000001 -0.000000 -0.000000 -0.000001 0.000000 -0.000000 -0.000001 0.000000 -0.000000 -0.000001 0.000000 
-0.336730 68.149071 9.855949 3.459134 -21.354219 1.522660 -0.000000 -0.000001 -0.000000 -38.727237 7.237043 10.708353 34.323330 9.734273 -7.012471 -11.141225 2.284198 -0.218368 0.000000 0.000000 -0.000000 -0.000002 0.000001 -0.000000 -11.631844 19.204740 3.684511 37.127365 -4.721344 0.056649 -25.882563 -3.753174 0.196244 0.000000 -0.000000 0.000000 0.000001 0.000000 -0.000000 5.428567 -0.276458 0.473975 4.459259 -0.378391 0.906359 4.392870 -0.442316 0.876708 10.569870 10.426582 -13.447970 -21.079366 6.487038 3.862146 0.000000 -0.000000 0.000000 0.000000 -0.000000 0.000000 0.000000 -0.000000 0.000000 0.000000 -0.000000 0.000000 0.000000 0.000000 -0.000000 0.000000 -0.000000 0.000000 0.000000 0.000000 -0.000000 0.000000 -0.000000 0.000000 0.000000 -0.000000 0.000000 0.057683 -7.729485 -0.073837 -54.256752 -1.046098 -41.156784 11.577913 -66.281570 12.845953 -50.249763 12.359948 4.365969 17.551822 -5.749357 -12.918301 10.851652 26.130709 8.644917 -0.000004 0.000001 -0.000001 14.125194 0.376634 -55.813079 0.389553 1.176591 -66.500190 0.000001 0.000000 -0.000000 7.714221 0.896022 -64.550240 1.826377 1.458582 -65.488503 0.000001 0.000000 -0.000001 8.599232 2.052261 -75.860029 -0.196610 0.996711 -58.538047 -0.000000 0.000000 -0.000001 10.288637 13.671132 -84.904606 0.876076 0.051775 -64.730324 -0.000000 0.000000 -0.000001 -0.000000 0.000002 -0.000001 5.169233 11.480856 3.593681 -6.419107 7.754507 59.645351 10.044977 19.912646 -2.572391 0.452515 7.058318 0.176423 14.821020 0.512085 -16.941898 -2.267847 -31.037541 7.360337 -0.000001 -0.000001 0.000002 2.808337 -4.739619 8.116001 -2.128333 -2.489060 19.419193 -0.000003 0.000000 0.000000 -1.271071 -7.215328 12.328065 0.529513 -5.121412 26.428693 0.000003 0.000000 -0.000001 -4.288226 -10.759549 10.694399 4.075470 -3.906694 32.519613 0.000001 -0.000000 0.000001 -10.427440 -13.599229 20.173041 10.711438 -2.556399 32.840605 -0.000001 0.000001 -0.000005 0.000000 -0.000000 0.000000 -0.000000 -0.000002 -0.000000 -0.000000 -0.000002 -0.000000 -0.000000 -0.000002 0.000000 -0.000000 -0.000002 0.000000 -0.000000 -0.000002 -0.000000 -0.000000 -0.000002 0.000000 -0.000000 -0.000002 0.000000 -0.000000 -0.000002 0.000000 -0.000000 -0.000002 -0.000000 -0.000000 -0.000002 0.000000 -0.000000 -0.000001 -0.000000 -0.000000 -0.000001 -0.000000 -0.000000 -0.000001 -0.000000 
-0.366448 68.226318 13.272406 2.102071 -23.142100 0.633932 0.000000 -0.000001 -0.000000 -38.122814 6.061720 10.609756 25.997472 11.951187 -3.289055 -16.049150 2.115840 -2.629803 -0.000001 -0.000000 0.000000 0.000001 0.000000 0.000000 -5.611189 18.606149 1.956938 34.322834 -2.666292 -0.204875 -26.931977 -3.558508 -0.457134 -0.000000 -0.000001 0.000000 0.000000 0.000000 -0.000000 6.602831 0.261779 0.640244 4.247391 0.378615 0.913156 4.185215 0.330408 0.861211 9.895628 9.994661 -12.858911 -20.677692 6.355241 3.435106 -0.000000 0.000000 -0.000000 -0.000000 0.000000 -0.000000 -0.000000 0.000000 -0.000000 -0.000000 0.000000 -0.000000 -0.000000 -0.000000 -0.000000 -0.000000 0.000000 -0.000000 -0.000000 -0.000000 -0.000000 -0.000000 0.000000 -0.000000 -0.000000 0.000000 -0.000000 0.043749 -7.243902 -0.071318 -53.732989 -1.294001 -40.939406 10.365709 -67.011526 11.636659 -50.304712 12.507203 4.470241 17.549573 -5.755995 -12.917687 10.882145 26.213322 8.648753 0.000001 0.000001 0.000000 14.194204 0.158502 -56.153540 0.396588 1.177875 -66.908123 0.000001 0.000001 0.000002 7.751449 0.828349 -64.725830 1.831827 1.454400 -65.693545 -0.000001 0.000000 0.000002 8.603598 2.048687 -75.883716 -0.196411 0.993323 -58.563668 -0.000001 0.000000 -0.000001 10.329216 13.680596 -84.934570 0.877025 0.052096 -64.775069 -0.000000 0.000000 -0.000001 0.000000 0.000002 -0.000000 5.138989 13.088714 2.917757 -8.219994 10.836366 58.815469 9.139725 19.654788 -1.918024 0.429759 5.281221 -1.501905 14.946759 0.556862 -16.825017 -2.278454 -31.013048 7.361062 0.000000 -0.000001 0.000001 2.955889 -5.098295 7.957246 -2.116970 -2.498836 19.680352 0.000002 0.000001 -0.000001 -1.040318 -7.729583 11.795277 0.508270 -5.121929 26.192027 0.000001 -0.000000 0.000001 -4.680735 -11.508528 10.248497 4.115402 -3.890246 32.209369 -0.000002 0.000000 -0.000002 -11.895677 -14.271959 18.984688 10.712014 -2.556284 32.098887 -0.000002 0.000001 -0.000003 -0.000001 -0.000000 -0.000002 0.000001 -0.000000 0.000001 0.000001 -0.000000 -0.000001 0.000001 -0.000000 0.000000 0.000001 -0.000000 0.000000 0.000001 -0.000000 0.000001 0.000001 -0.000000 -0.000000 0.000001 -0.000000 0.000000 0.000001 -0.000000 0.000000 0.000001 -0.000000 0.000001 0.000001 -0.000000 -0.000000 0.000000 -0.000001 -0.000000 0.000000 -0.000001 -0.000000 0.000000 -0.000001 -0.000000 
